<svg xmlns="http://www.w3.org/2000/svg" viewBox="0 0 64 64">
  <defs>
    <linearGradient id="bg" x1="0" y1="0" x2="1" y2="1">
      <stop offset="0%" stop-color="#4a7bff"/>
      <stop offset="100%" stop-color="#2f58d6"/>
    </linearGradient>
  </defs>
  <rect x="4" y="4" width="56" height="56" rx="14" fill="url(#bg)"/>
  <circle cx="32" cy="32" r="16" fill="#ffffff" opacity="0.95"/>
  <path d="M23 20c5.2-2.4 10.8-2.4 16 0 1.2.6 2 1.9 2 3.2v17.6c0 1.3-.8 2.6-2 3.2-5.2 2.4-10.8 2.4-16 0-1.2-.6-2-1.9-2-3.2V23.2c0-1.3.8-2.6 2-3.2Z" fill="none" stroke="#2f58d6" stroke-width="2.6"/>
  <path d="M32 20v8M32 36v8M24 28h16M24 44h16" stroke="#2f58d6" stroke-width="2.6" stroke-linecap="round"/>
</svg>